<svg viewBox="0 0 600 400">
  <path fill="#8C8C8C" d="M351 123c-17-6-27-7-44-3a184 184 0 0 0-92 48c-13 12-26 26-33 42-7 15-4 32 8 44 13 12 31 16 49 15 23-1 46-8 68-14 16-5 33-12 49-19 20-9 44-20 58-38 10-12 12-32-3-40-2-2-1 2 0 3 8 4 10 15 7 23s-9 14-16 20a415 415 0 0 1-152 60c-18 2-39 2-54-10-7-5-12-12-14-20-2-9 2-18 6-26a203 203 0 0 1 118-83c17-4 28-3 46 3 2 0 1-4-1-5z"/>
  <path fill="#8C8C8C" d="M281 186c-6 7-16 12-25 14 6-12 13-24 21-35 2-2-2-6-3-4-10 12-18 26-24 40l-7 1h-4c-2-1-5-3-5-5-1-3 1-7 1-10l2-9c1-1-2-4-3-2-3 10-8 29 8 30h6a169 169 0 0 0-10 36c-1 6 1 16 9 16 2-1 0-4-1-5-8-2-1-21 0-26l8-22 10-3c7-2 16-6 20-13 1-1-2-5-3-3zm27 6c1-1 0-4-2-4-10-1-15 14-16 22-1 7 0 18 10 18 9-1 18-11 18-21 1-6-3-14-10-15zm4 21c-3 5-8 9-14 10-5 0-5-6-4-10a40 40 0 0 1 8-19l2 2 4 1 1-1c6 2 6 11 3 17zm65-21c-7 4-14 8-22 9 5-12 10-25 19-35 1-2-2-6-4-4-10 10-15 25-20 39l-1 1c-3 0-6 0-9-2-5-3-6-8-5-13 2-14 10-28 23-34 2-1 0-5-2-5-9 4-15 11-20 20-4 7-7 17-5 26 2 8 8 12 16 13-5 14-10 27-13 41-1 2 3 6 4 3 5-14 9-29 15-43 10-1 21-5 27-11 2-1-1-6-3-5z"/>
</svg>