<svg xmlns="http://www.w3.org/2000/svg" viewBox="0 0 512 512">
  <path fill="#3D3D3D" d="M184.9 153.4 56.1 286.8l229.1 169.1 170.7-230.4z"/>
  <path fill="#939393" d="M217.7 342.3 56.1 286.8l128.8-133.4s167.8 28.6 243.4 18l-110.5 143a91.6 91.6 0 0 1-100 28z"/>
  <path fill="#C4C4C4" d="M408.9 56 238.6 240.4A86.2 86.2 0 0 1 188 267L56 286.8l128.8-133.4S322.2 121 409 56.1z"/>
  <path fill="#FFF" d="M222.3 241.7h26.6l11-45.4h28.5l-5.3 45.4h31.3l-6.5 26.6H280l-9.7 63h22.1l-5.9 24.6h-53.2l14.9-88.9h-29.8z"/>
</svg>