<svg xmlns="http://www.w3.org/2000/svg" viewBox="0 0 512 512">
  <path fill="none" stroke="#666" stroke-miterlimit="10" stroke-width="4" d="m182.5 149.9-133.2 138 236.9 174.8 176.5-238.3z"/>
  <path fill="none" stroke="#666" stroke-miterlimit="10" stroke-width="4" d="M234.2 349.5c-6-.9-12-2.3-17.8-4.3L51.8 288.7l-2.5-.8 1.2-1.3 132-136.7s173.5 29.6 251.7 18.7L320 316.3a94.3 94.3 0 0 1-27.5 22.5"/>
  <path fill="none" stroke="#666" stroke-miterlimit="10" stroke-width="4" d="m253 223.6-15 16.1-1.5 1.5M219 255.3a88.8 88.8 0 0 1-33.2 12l-132 19.9-1.8-2.1L182.5 150s142-33.6 231.6-100.7l-134 145"/>
  <path fill="none" stroke="#666" stroke-miterlimit="10" stroke-width="4" d="M221.1 241.2h27.5l11.4-47h29.6l-5.6 47h32.4l-6.7 27.5h-28.9l-10 65.2h22.8l-6 25.5h-55.1l15.5-92h-30.9z"/>
</svg>